<?xml version="1.0"?>
<svg xmlns="http://www.w3.org/2000/svg" width="512" height="512" viewBox="0 0 128 128"><g><path d="M107.177,12.476H83.233v-1.79A6.135,6.135,0,0,0,77.1,4.557H50.9a6.135,6.135,0,0,0-6.129,6.129v1.79H20.823a1.749,1.749,0,0,0-1.75,1.75V121.693a1.749,1.749,0,0,0,1.75,1.75h86.354a1.749,1.749,0,0,0,1.75-1.75V14.226A1.749,1.749,0,0,0,107.177,12.476ZM95.039,25.839v83.772H32.96V25.839ZM48.267,10.686A2.632,2.632,0,0,1,50.9,8.057H77.1a2.632,2.632,0,0,1,2.629,2.629V22.339H48.267Zm57.16,109.257H22.573V15.976H44.767v6.363H31.21a1.75,1.75,0,0,0-1.75,1.75v87.272a1.75,1.75,0,0,0,1.75,1.75H96.789a1.749,1.749,0,0,0,1.75-1.75V24.089a1.749,1.749,0,0,0-1.75-1.75H83.233V15.976h22.194Z"/><path d="M41.653,77.339H57.38a1.749,1.749,0,0,0,1.75-1.75V62.508l3.523-3.523a1.75,1.75,0,0,0-2.475-2.474l-1.871,1.871a1.736,1.736,0,0,0-.927-.271H41.653a1.751,1.751,0,0,0-1.75,1.75V75.589A1.75,1.75,0,0,0,41.653,77.339ZM43.4,61.611H55.077L49.528,67.16l-1.395-1.395a1.75,1.75,0,0,0-2.475,2.474l2.633,2.633a1.749,1.749,0,0,0,2.475,0l4.864-4.864v7.831H43.4Z"/><path d="M41.653,103.089H57.38a1.749,1.749,0,0,0,1.75-1.75V88.258l3.523-3.523a1.75,1.75,0,1,0-2.475-2.474l-1.871,1.871a1.736,1.736,0,0,0-.927-.271H41.653a1.751,1.751,0,0,0-1.75,1.75v15.728A1.75,1.75,0,0,0,41.653,103.089ZM43.4,87.361H55.077L49.528,92.91l-1.395-1.395a1.75,1.75,0,0,0-2.475,2.474l2.633,2.633a1.749,1.749,0,0,0,2.475,0l4.864-4.864v7.831H43.4Z"/><path d="M41.653,51.589H57.38a1.749,1.749,0,0,0,1.75-1.75V36.758l3.523-3.523a1.75,1.75,0,0,0-2.475-2.474l-1.871,1.871a1.736,1.736,0,0,0-.927-.271H41.653a1.751,1.751,0,0,0-1.75,1.75V49.839A1.75,1.75,0,0,0,41.653,51.589ZM43.4,35.861H55.077L49.528,41.41l-1.395-1.395a1.75,1.75,0,1,0-2.475,2.474l2.633,2.633a1.749,1.749,0,0,0,2.475,0l4.864-4.864v7.831H43.4Z"/><path d="M65.652,43.725H86.347a1.75,1.75,0,0,0,0-3.5H65.652a1.75,1.75,0,0,0,0,3.5Z"/><path d="M65.652,69.475H86.347a1.75,1.75,0,1,0,0-3.5H65.652a1.75,1.75,0,0,0,0,3.5Z"/><path d="M65.652,95.225H86.347a1.75,1.75,0,1,0,0-3.5H65.652a1.75,1.75,0,0,0,0,3.5Z"/></g></svg>
