<?xml version="1.0" encoding="iso-8859-1"?>
<!-- Generator: Adobe Illustrator 19.1.0, SVG Export Plug-In . SVG Version: 6.00 Build 0)  -->
<svg version="1.1" id="Capa_1" xmlns="http://www.w3.org/2000/svg" xmlns:xlink="http://www.w3.org/1999/xlink" x="0px" y="0px"
	 viewBox="0 0 487.4 487.4" style="enable-background:new 0 0 487.4 487.4;" xml:space="preserve">
<g>
	<g>
		<path d="M225.1,251.913c2.3,0,4.6-1,6.3-2.6c1.7-1.7,2.6-4,2.6-6.3s-1-4.6-2.6-6.3c-1.7-1.7-4-2.6-6.3-2.6s-4.6,0.9-6.3,2.6
			c-1.7,1.7-2.6,4-2.6,6.3s1,4.6,2.6,6.3C220.5,250.913,222.8,251.913,225.1,251.913z"/>
		<circle cx="277.2" cy="243.013" r="8.9"/>
		<circle cx="251.2" cy="243.013" r="8.9"/>
		<circle cx="303.2" cy="243.013" r="8.9"/>
		<path d="M329.3,234.013c-4.9,0-8.9,4-8.9,8.9c0,4.9,4,8.9,8.9,8.9s8.9-4,8.9-8.9C338.2,238.013,334.2,234.013,329.3,234.013z"/>
		<circle cx="329.3" cy="216.913" r="8.9"/>
		<circle cx="329.3" cy="190.813" r="8.9"/>
		<path d="M329.3,155.913c-4.9,0-8.9,4-8.9,8.9s4,8.9,8.9,8.9s8.9-4,8.9-8.9S334.2,155.913,329.3,155.913z"/>
		<path d="M329.3,129.813c-2.3,0-4.7,0.9-6.3,2.6c-1.7,1.7-2.6,4-2.6,6.3s0.9,4.6,2.6,6.3s4,2.6,6.3,2.6s4.6-1,6.3-2.6
			s2.6-4,2.6-6.3s-1-4.6-2.6-6.3C333.9,130.813,331.6,129.813,329.3,129.813z"/>
		<circle cx="329.3" cy="347.113" r="8.9"/>
		<path d="M329.3,260.113c-4.9,0-8.9,4-8.9,8.9s4,8.9,8.9,8.9s8.9-4,8.9-8.9S334.2,260.113,329.3,260.113z"/>
		<circle cx="329.3" cy="321.113" r="8.9"/>
		<circle cx="329.3" cy="295.013" r="8.9"/>
		<path d="M407.4,338.213c-4.9,0-8.9,4-8.9,8.9s4,8.9,8.9,8.9s8.9-4,8.9-8.9S412.4,338.213,407.4,338.213z"/>
		<circle cx="381.4" cy="347.113" r="8.9"/>
		<circle cx="355.3" cy="347.113" r="8.9"/>
		<path d="M407.4,234.013c-4.9,0-8.9,4-8.9,8.9c0,4.9,4,8.9,8.9,8.9s8.9-4,8.9-8.9C416.3,238.013,412.4,234.013,407.4,234.013z"/>
		<circle cx="381.4" cy="243.013" r="8.9"/>
		<circle cx="355.3" cy="243.013" r="8.9"/>
		<path d="M407.4,129.813c-4.9,0-8.9,4-8.9,8.9s4,8.9,8.9,8.9s8.9-4,8.9-8.9C416.4,133.813,412.4,129.813,407.4,129.813z"/>
		<circle cx="381.4" cy="138.713" r="8.9"/>
		<circle cx="355.3" cy="138.713" r="8.9"/>
		<path d="M485.6,119.113c-2.3-2.3-6.1-2.3-8.4,0l-26.6,26.6l-9.8-9.8c-2.3-2.3-6.1-2.3-8.4,0s-2.3,6.1,0,8.4l14,14
			c1.2,1.2,2.7,1.7,4.2,1.7s3.1-0.6,4.2-1.7l30.8-30.8C488,125.213,488,121.413,485.6,119.113z"/>
		<path d="M477.2,221.813c-2.3-2.3-6.1-2.3-8.4,0l-12.7,12.7l-12.7-12.7c-2.3-2.3-6.1-2.3-8.4,0s-2.3,6.1,0,8.4l12.7,12.7
			l-12.8,12.8c-2.3,2.3-2.3,6.1,0,8.4c1.2,1.2,2.7,1.7,4.2,1.7s3.1-0.6,4.2-1.7l12.7-12.7l12.7,12.7c1.2,1.2,2.7,1.7,4.2,1.7
			s3.1-0.6,4.2-1.7c2.3-2.3,2.3-6.1,0-8.4l-12.7-12.7l12.7-12.7C479.5,227.913,479.5,224.113,477.2,221.813z"/>
		<path d="M477.2,326.013c-2.3-2.3-6.1-2.3-8.4,0l-12.7,12.7l-12.7-12.7c-2.3-2.3-6.1-2.3-8.4,0s-2.3,6.1,0,8.4l12.7,12.7
			l-12.7,12.7c-2.3,2.3-2.3,6.1,0,8.4c1.2,1.2,2.7,1.7,4.2,1.7s3.1-0.6,4.2-1.7l12.7-12.7l12.7,12.7c1.2,1.2,2.7,1.7,4.2,1.7
			s3.1-0.6,4.2-1.7c2.3-2.3,2.3-6.1,0-8.4l-12.7-12.7l12.7-12.7C479.5,332.113,479.5,328.313,477.2,326.013z"/>
		<path d="M119.4,258.113L119.4,258.113c0.1,0,0.3,0,0.4,0c0.1,0,0.3,0,0.4,0l0,0c64.8-0.7,55.4-87.2,55.4-87.2
			c-2.7-57.8-51-57.3-55.8-57.1c-4.8-0.2-53.1-0.7-55.7,57.1C64,170.913,54.6,257.413,119.4,258.113z"/>
		<path d="M208.6,285.613c-29.3-11.2-46.8-22.6-46.8-22.6l-22.6,71.4l-3.1,9.7l-10.1-28.7c23.2-32.4-1.8-34-6.1-34l0,0
			c0,0,0,0-0.1,0c0,0,0,0-0.1,0c0,0,0,0-0.1,0s-0.1,0-0.1,0l0,0c-4.3,0-29.3,1.6-6.1,34l-10.1,28.7l-3.1-9.7l-22.6-71.4
			c0,0-17.5,11.5-46.8,22.6c-32.1,11.7-30.1,38.3-30.8,88h119.6h0.3h119.6C238.9,323.913,240.9,297.313,208.6,285.613z"/>
	</g>
</g>
<g>
</g>
<g>
</g>
<g>
</g>
<g>
</g>
<g>
</g>
<g>
</g>
<g>
</g>
<g>
</g>
<g>
</g>
<g>
</g>
<g>
</g>
<g>
</g>
<g>
</g>
<g>
</g>
<g>
</g>
</svg>
