<svg id="tags" viewBox="0 0 20 20">
    <path d="M4.75 4.75c0-0.753-0.604-1.357-1.357-1.357s-1.357 0.604-1.357 1.357 0.604 1.357 1.357 1.357 1.357-0.604 1.357-1.357zM16.063 10.857c0 0.36-0.148 0.71-0.392 0.954l-5.206 5.217c-0.254 0.244-0.604 0.392-0.965 0.392s-0.71-0.148-0.954-0.392l-7.581-7.592c-0.541-0.53-0.965-1.559-0.965-2.311v-4.411c0-0.742 0.615-1.357 1.357-1.357h4.411c0.753 0 1.781 0.424 2.322 0.965l7.581 7.57c0.244 0.254 0.392 0.604 0.392 0.965zM20.134 10.857c0 0.36-0.148 0.71-0.392 0.954l-5.206 5.217c-0.254 0.244-0.604 0.392-0.965 0.392-0.551 0-0.827-0.254-1.188-0.626l4.983-4.983c0.244-0.244 0.392-0.594 0.392-0.954s-0.148-0.71-0.392-0.965l-7.581-7.57c-0.541-0.541-1.569-0.965-2.322-0.965h2.375c0.753 0 1.781 0.424 2.322 0.965l7.581 7.57c0.244 0.254 0.392 0.604 0.392 0.965z"/>
</svg>
